<svg width="86" height="178" viewBox="0 0 86 178" fill="none" xmlns="http://www.w3.org/2000/svg">
<path d="M0 42.6627C0 19.1007 19.1008 0 42.6628 0C66.2248 0 85.3255 19.1008 85.3255 42.6628V135.099C85.3255 158.661 66.2248 177.762 42.6628 177.762C19.1008 177.762 0 158.661 0 135.099V42.6627Z" fill="#FFAEAF"/>
<path d="M0 42.6627C0 19.1007 19.1008 0 42.6628 0C66.2248 0 85.3255 19.1008 85.3255 42.6628V135.099C85.3255 158.661 66.2248 177.762 42.6628 177.762C19.1008 177.762 0 158.661 0 135.099V42.6627Z" fill="url(#paint0_linear_568_72)"/>
<path d="M84.3252 135.099V42.6631C84.3252 19.6535 65.6727 1.00017 42.6631 1C19.6534 1 1 19.6534 1 42.6631V135.099C1 158.108 19.6534 176.762 42.6631 176.762L42.6628 177.762L41.5615 177.748C18.5085 177.164 0 158.293 0 135.099V42.6627C0 19.1007 19.1008 0 42.6628 0L43.7637 0.0136719C66.8169 0.597597 85.3255 19.4688 85.3255 42.6628V135.099C85.3255 158.661 66.2248 177.762 42.6628 177.762L42.6631 176.762C65.6727 176.762 84.3252 158.108 84.3252 135.099Z" fill="#FF8385"/>
<defs>
<linearGradient id="paint0_linear_568_72" x1="42.6628" y1="0" x2="42.6628" y2="177.762" gradientUnits="userSpaceOnUse">
<stop stop-color="#FFAEAF"/>
<stop offset="1" stop-color="#FFCACA"/>
</linearGradient>
</defs>
</svg>
